<?xml version="1.0" standalone="no"?>
<!DOCTYPE svg PUBLIC "-//W3C//DTD SVG 1.1//EN" "http://www.w3.org/Graphics/SVG/1.1/DTD/svg11.dtd" >
<svg xmlns="http://www.w3.org/2000/svg">
<metadata></metadata>
<defs>
<font id="stratum2thin" horiz-adv-x="1032" >
<font-face units-per-em="2048" ascent="1577" descent="-471" />
<missing-glyph horiz-adv-x="450" />
<glyph unicode="&#xfb01;" horiz-adv-x="1054" d="M92 938v33h164v166q0 95 65 161t160 66h137v-35h-137q-79 0 -133.5 -55t-54.5 -135v-168h319v-33h-319v-938h-37v938h-164zM823 0v971h37v-971h-37zM823 1184v180h37v-180h-37z" />
<glyph unicode="&#xfb02;" horiz-adv-x="1034" d="M92 938v33h164v166q0 95 65 161t160 66h137v-35h-137q-79 0 -133.5 -55t-54.5 -135v-168h319v-33h-319v-938h-37v938h-164zM813 0v1364h37v-1364h-37z" />
<glyph horiz-adv-x="0" />
<glyph horiz-adv-x="682" />
<glyph unicode=" "  horiz-adv-x="450" />
<glyph unicode="&#x09;" horiz-adv-x="450" />
<glyph unicode="&#xa0;" horiz-adv-x="450" />
<glyph unicode="!" horiz-adv-x="430" d="M195 0v160h41v-160h-41zM197 647v717h36v-717l-6 -258h-24z" />
<glyph unicode="&#x22;" horiz-adv-x="614" d="M143 918v446h37v-446h-37zM434 918v446h37v-446h-37z" />
<glyph unicode="#" horiz-adv-x="1519" d="M102 432l7 33h319l72 436h-320l6 33h320l72 430h34l-71 -430h489l72 430h35l-72 -430h342l-6 -33h-342l-72 -436h342l-6 -33h-342l-72 -432h-35l72 432h-489l-72 -432h-35l72 432h-320zM463 465h489l72 436h-489z" />
<glyph unicode="$" horiz-adv-x="1075" d="M205 227v127h37v-129q0 -80 54.5 -135t133.5 -55h215q83 0 136 46t53 124v272q0 73 -49.5 110t-149.5 64l-199 54q-55 15 -91 29.5t-69 37.5t-49 57.5t-16 81.5v246q0 94 62.5 150.5t162.5 56.5h86v213h37v-213h76q95 0 160 -66t65 -161v-119h-37v121q0 81 -53 135.5 t-135 54.5h-199q-86 0 -137 -45.5t-51 -124.5v-246q0 -73 46 -108.5t150 -65.5q46 -14 109 -30.5t98 -26.5q111 -32 165 -75.5t54 -131.5v-268q0 -94 -63.5 -150.5t-161.5 -56.5h-86v-207h-37v207h-92q-95 0 -160 66t-65 161z" />
<glyph unicode="%" horiz-adv-x="1923" d="M184 795v366q0 86 57.5 144.5t143.5 58.5h184q86 0 143.5 -58.5t57.5 -144.5v-366q0 -86 -57.5 -144.5t-143.5 -58.5h-184q-86 0 -143.5 58.5t-57.5 144.5zM217 793q0 -71 49 -120.5t119 -49.5h184q70 0 119 49.5t49 120.5v370q0 71 -49 120.5t-119 49.5h-184 q-70 0 -119 -49.5t-49 -120.5v-370zM612 0l666 1364h35l-666 -1364h-35zM1153 203v366q0 86 57.5 144.5t143.5 58.5h184q86 0 143.5 -58.5t57.5 -144.5v-366q0 -86 -57.5 -144.5t-143.5 -58.5h-184q-86 0 -143.5 58.5t-57.5 144.5zM1186 201q0 -71 49 -120.5t119 -49.5h184 q70 0 119 49.5t49 120.5v370q0 71 -49 120.5t-119 49.5h-184q-70 0 -119 -49.5t-49 -120.5v-370z" />
<glyph unicode="&#x26;" horiz-adv-x="1165" d="M174 227v271q0 75 42.5 130t111.5 83q-63 28 -100.5 82t-37.5 122v222q0 95 65.5 161t160.5 66h284q95 0 160.5 -66t65.5 -161v-72h-37v74q0 80 -55 135t-134 55h-284q-79 0 -134 -55t-55 -135v-224q0 -79 52.5 -134.5t128.5 -55.5h716v-35h-180v-463q0 -95 -65 -161 t-160 -66h-320q-95 0 -160 66t-65 161zM211 225q0 -80 54.5 -135t133.5 -55h320q79 0 133.5 55t54.5 135v465h-508q-79 0 -133.5 -55t-54.5 -135v-275z" />
<glyph unicode="'" horiz-adv-x="323" d="M143 918v446h37v-446h-37z" />
<glyph unicode="(" horiz-adv-x="460" d="M184 -131v1429q0 104 78 172q82 72 156 134l22 -23q-104 -89 -153 -135q-35 -33 -50.5 -65.5t-15.5 -80.5v-1433q0 -48 15.5 -80.5t50.5 -65.5q49 -46 153 -135l-22 -22q-95 79 -156 133q-78 68 -78 172z" />
<glyph unicode=")" horiz-adv-x="460" d="M20 -414q119 103 154 135q35 33 50.5 65.5t15.5 80.5v1433q0 48 -15.5 80.5t-50.5 65.5q-35 32 -154 135l23 23q74 -62 156 -134q77 -67 77 -172v-1429q0 -105 -77 -172q-61 -54 -156 -133z" />
<glyph unicode="*" horiz-adv-x="897" d="M92 1057v28h330l-184 275l24 14l187 -278l186 278l24 -14l-184 -275h330v-28h-332l186 -275l-24 -14l-186 276l-187 -276l-24 14l184 275h-330z" />
<glyph unicode="+" horiz-adv-x="1116" d="M133 647v31h408v409h32v-409h410v-31h-410v-409h-32v409h-408z" />
<glyph unicode="," horiz-adv-x="378" d="M102 -180l72 180v160h41v-160l-78 -195z" />
<glyph unicode="-" horiz-adv-x="706" d="M123 588v33h461v-33h-461z" />
<glyph unicode="." horiz-adv-x="409" d="M184 0v160h41v-160h-41z" />
<glyph unicode="/" horiz-adv-x="806" d="M102 -240l590 1624h33l-590 -1624h-33z" />
<glyph unicode="0" horiz-adv-x="1128" d="M184 227v910q0 95 65.5 161t160.5 66h309q95 0 160 -66t65 -161v-910q0 -95 -65 -161t-160 -66h-309q-95 0 -160.5 66t-65.5 161zM221 225q0 -80 55 -135t134 -55h309q79 0 133.5 55t54.5 135v914q0 80 -54.5 135t-133.5 55h-309q-79 0 -134 -55t-55 -135v-914z" />
<glyph unicode="1" horiz-adv-x="686" d="M41 1188v35l414 141h37v-1364h-37v1327z" />
<glyph unicode="2" horiz-adv-x="1083" d="M164 1028v109q0 95 65 161t160 66h295q97 0 161 -65.5t64 -161.5v-232q0 -88 -45 -132.5t-162 -82.5q-32 -11 -303 -98q-96 -31 -142 -75t-46 -120v-362h692v-35h-729v399q0 89 55 140.5t160 85.5q54 17 146 46.5t161 51.5q104 34 140 70.5t36 113.5v232 q0 81 -52.5 135.5t-135.5 54.5h-295q-82 0 -135 -54.5t-53 -135.5v-111h-37z" />
<glyph unicode="3" horiz-adv-x="1095" d="M154 227v86h36v-88q0 -80 55 -135t134 -55h307q79 0 133.5 55t54.5 135v267q0 80 -54.5 135t-133.5 55h-344v35h346q81 0 130.5 52t49.5 136v234q0 80 -54.5 135t-133.5 55h-287q-79 0 -133.5 -55t-54.5 -135v-99h-37v97q0 95 65 161t160 66h287q95 0 160 -66t65 -161 v-234q0 -149 -137 -205q63 -22 103 -80.5t40 -128.5v-262q0 -95 -65 -161t-160 -66h-307q-95 0 -160 66t-65 161z" />
<glyph unicode="4" horiz-adv-x="1060" d="M51 424v31l680 909h37v-909h248v-31h-248v-424h-35v424h-682zM94 455h639v858z" />
<glyph unicode="5" horiz-adv-x="1077" d="M184 227v58h37v-60q0 -80 55 -135t134 -55h278q79 0 134 55t55 135v408q0 79 -48.5 124.5t-132.5 45.5q-218 0 -307 -27q-69 -22 -115.5 -66.5t-46.5 -113.5v-47h-37v815h701v-35h-664v-620q53 81 181 108q103 21 288 21q97 0 157 -55.5t60 -149.5v-406q0 -95 -65 -161 t-160 -66h-278q-95 0 -160.5 66t-65.5 161z" />
<glyph unicode="6" horiz-adv-x="1087" d="M184 227v910q0 95 65.5 161t160.5 66h270q95 0 160 -66t65 -161v-84h-37v86q0 80 -54.5 135t-133.5 55h-270q-79 0 -134 -55t-55 -135v-494q54 82 180 109q122 28 295 28q97 0 157 -55t60 -149v-351q0 -95 -65 -161t-160 -66h-278q-95 0 -160.5 66t-65.5 161zM221 225 q0 -80 55 -135t134 -55h278q79 0 134 55t55 135v353q0 79 -48.5 124.5t-132.5 45.5q-193 0 -313 -35q-68 -20 -115 -66t-47 -115v-307z" />
<glyph unicode="7" horiz-adv-x="882" d="M72 1329v35h739v-35l-473 -1329h-37l473 1329h-702z" />
<glyph unicode="8" horiz-adv-x="1138" d="M184 227v271q0 75 42.5 130t111.5 83q-63 28 -100 82t-37 122v222q0 95 65 161t160 66h287q95 0 160 -66t65 -161v-222q0 -68 -37 -122t-100 -82q69 -28 111 -83t42 -130v-271q0 -95 -65 -161t-160 -66h-319q-95 0 -160.5 66t-65.5 161zM221 225q0 -80 55 -135t134 -55 h319q79 0 134 55t55 135v275q0 80 -55 135t-134 55h-319q-79 0 -134 -55t-55 -135v-275zM238 915q0 -78 51.5 -132.5t128.5 -57.5h303q77 3 128.5 57.5t51.5 132.5v224q0 80 -54.5 135t-133.5 55h-287q-79 0 -133.5 -55t-54.5 -135v-224z" />
<glyph unicode="9" horiz-adv-x="1089" d="M174 227v84h37v-86q0 -80 54.5 -135t133.5 -55h281q79 0 133.5 55t54.5 135v494q-54 -82 -180 -109q-122 -28 -295 -28q-97 0 -157 55t-60 149v351q0 95 65 161t160 66h279q95 0 160 -66t65 -161v-910q0 -95 -65 -161t-160 -66h-281q-95 0 -160 66t-65 161zM213 786 q0 -79 48.5 -124.5t131.5 -45.5q194 0 314 35q68 20 114.5 65.5t46.5 114.5v308q0 80 -54.5 135t-133.5 55h-279q-79 0 -133.5 -55t-54.5 -135v-353z" />
<glyph unicode=":" horiz-adv-x="409" d="M184 0v160h41v-160h-41zM184 696v160h41v-160h-41z" />
<glyph unicode=";" horiz-adv-x="409" d="M113 -180l71 180v160h41v-160l-78 -195zM184 696v160h41v-160h-41z" />
<glyph unicode="&#x3c;" horiz-adv-x="1187" d="M133 647v29l856 430l15 -27l-838 -417l838 -418l-15 -27z" />
<glyph unicode="=" horiz-adv-x="1054" d="M123 455v30h809v-30h-809zM123 838v30h809v-30h-809z" />
<glyph unicode="&#x3e;" horiz-adv-x="1187" d="M184 244l838 418l-838 417l15 27l856 -430v-29l-856 -430z" />
<glyph unicode="?" horiz-adv-x="1042" d="M164 993v144q0 95 65 161t160 66h295q95 0 160 -66t65 -161v-146q0 -69 -11.5 -103.5t-41.5 -61.5t-106 -72q-46 -28 -152 -88q-61 -34 -82.5 -71.5t-21.5 -111.5v-161h-37v161q0 61 16.5 101.5t39.5 61t67 46.5q30 18 78.5 45.5t70.5 40.5q55 33 78.5 50t41 41.5 t20.5 48t3 71.5v152q0 80 -54.5 135t-133.5 55h-295q-79 0 -133.5 -55t-54.5 -135v-148h-37zM455 0v160h41v-160h-41z" />
<glyph unicode="@" horiz-adv-x="1216" d="M184 227v910q0 95 65.5 161t160.5 66h438q95 0 160 -66t65 -161v-650h-37v105q-48 -67 -164 -98q-94 -25 -206 -25q-88 0 -142.5 49.5t-54.5 134.5v125q0 85 54.5 135t142.5 50q71 0 206 -15q108 -14 164 -96v287q0 80 -54.5 135t-133.5 55h-438q-79 0 -134 -55t-55 -135 v-914q0 -80 55 -135t134 -55h606v-35h-606q-95 0 -160.5 66t-65.5 161zM502 653q0 -72 44 -112.5t120 -40.5q122 0 223 30q147 46 147 164v54q0 65 -43 108.5t-104 54.5q-115 21 -223 21q-75 0 -119.5 -41t-44.5 -113v-125z" />
<glyph unicode="A" horiz-adv-x="1183" d="M92 0l483 1364h33l484 -1364h-37l-148 412h-631l-147 -412h-37zM289 446h606l-303 871z" />
<glyph unicode="B" horiz-adv-x="1169" d="M195 0v1364h559q95 0 160 -66t65 -161v-222q0 -70 -39 -125.5t-106 -78.5q69 -15 115 -75t46 -138v-271q0 -95 -65 -161t-160 -66h-575zM231 35h539q79 0 133.5 55t54.5 135v275q0 80 -54.5 135t-133.5 55h-539v-655zM231 725h531q77 3 128.5 57.5t51.5 132.5v224 q0 80 -54.5 135t-133.5 55h-523v-604z" />
<glyph unicode="C" horiz-adv-x="1185" d="M184 227v910q0 95 65.5 161t160.5 66h376q95 0 160.5 -66t65.5 -161v-164h-37v166q0 80 -55 135t-134 55h-376q-79 0 -134 -55t-55 -135v-914q0 -80 55 -135t134 -55h376q79 0 134 55t55 135v172h37v-170q0 -95 -65.5 -161t-160.5 -66h-376q-95 0 -160.5 66t-65.5 161z " />
<glyph unicode="D" horiz-adv-x="1169" d="M195 0v1364h565q95 0 160 -66t65 -161v-910q0 -95 -65 -161t-160 -66h-565zM231 35h529q79 0 133.5 55t54.5 135v914q0 80 -54.5 135t-133.5 55h-529v-1294z" />
<glyph unicode="E" horiz-adv-x="1075" d="M195 0v1364h725v-35h-689v-590h625v-34h-625v-670h701v-35h-737z" />
<glyph unicode="F" horiz-adv-x="1005" d="M195 0v1364h733v-35h-697v-590h633v-34h-633v-705h-36z" />
<glyph unicode="G" horiz-adv-x="1165" d="M184 227v910q0 95 65.5 161t160.5 66h366q95 0 160 -66t65 -161v-144h-36v146q0 80 -55 135t-134 55h-366q-79 0 -134 -55t-55 -135v-914q0 -80 55 -135t134 -55h366q79 0 134 55t55 135v365h-332v33h368v-396q0 -95 -65 -161t-160 -66h-366q-95 0 -160.5 66t-65.5 161z " />
<glyph unicode="H" horiz-adv-x="1210" d="M195 0v1364h36v-631h748v631h37v-1364h-37v698h-748v-698h-36z" />
<glyph unicode="I" horiz-adv-x="446" d="M205 0v1364h37v-1364h-37z" />
<glyph unicode="J" horiz-adv-x="1009" d="M102 227v138h37v-140q0 -80 55 -135t134 -55h272q79 0 133.5 55t54.5 135v1139h37v-1137q0 -95 -65 -161t-160 -66h-272q-95 0 -160.5 66t-65.5 161z" />
<glyph unicode="K" horiz-adv-x="1056" d="M195 0v1364h36v-655l687 655h49l-695 -664l723 -700h-49l-715 690v-690h-36z" />
<glyph unicode="L" horiz-adv-x="1001" d="M195 0v1364h36v-1329h658v-35h-694z" />
<glyph unicode="M" horiz-adv-x="1372" d="M195 0v1364h36l455 -979l455 979h37v-1364h-37v1276l-439 -946h-30l-441 946v-1276h-36z" />
<glyph unicode="N" horiz-adv-x="1226" d="M195 0v1364h34l768 -1294v1294h35v-1364h-35l-768 1292v-1292h-34z" />
<glyph unicode="O" horiz-adv-x="1206" d="M184 227v910q0 95 65.5 161t160.5 66h387q95 0 160 -66t65 -161v-910q0 -95 -65 -161t-160 -66h-387q-95 0 -160.5 66t-65.5 161zM221 225q0 -80 55 -135t134 -55h387q79 0 133.5 55t54.5 135v914q0 80 -54.5 135t-133.5 55h-387q-79 0 -134 -55t-55 -135v-914z" />
<glyph unicode="P" horiz-adv-x="1050" d="M195 0v1364h538q95 0 160 -66t65 -161v-293q0 -96 -65 -162t-160 -66h-502v-616h-36zM231 651h502q79 0 134 55.5t55 135.5v297q0 80 -55 135t-134 55h-502v-678z" />
<glyph unicode="Q" horiz-adv-x="1208" d="M184 227v910q0 95 65.5 161t160.5 66h389q95 0 160 -66t65 -161v-910q0 -95 -65 -161t-160 -66h-176v-266h-37v266h-176q-95 0 -160.5 66t-65.5 161zM221 225q0 -80 55 -135t134 -55h389q79 0 133.5 55t54.5 135v914q0 80 -54.5 135t-133.5 55h-389q-79 0 -134 -55 t-55 -135v-914z" />
<glyph unicode="R" horiz-adv-x="1165" d="M195 0v1364h548q95 0 160.5 -66t65.5 -161v-285q0 -92 -61 -157t-152 -70l297 -625h-39l-297 625h-486v-625h-36zM231 659h512q79 0 134 55.5t55 135.5v289q0 80 -55 135t-134 55h-512v-670z" />
<glyph unicode="S" horiz-adv-x="1153" d="M184 227v150h37v-154q0 -80 55 -135t134 -55h344q79 0 133.5 55t54.5 135v215q0 75 -46 119.5t-130 69.5q-88 26 -201 57t-162 45q-100 29 -155 81t-55 140v187q0 95 65 161t160 66h327q95 0 160.5 -66t65.5 -161v-144h-37v148q0 80 -55 135t-134 55h-327q-79 0 -134 -55 t-55 -135v-191q0 -74 45 -117.5t129 -68.5q91 -26 202 -57t161 -45q101 -29 157 -81.5t56 -142.5v-211q0 -95 -65 -161t-160 -66h-344q-95 0 -160.5 66t-65.5 161z" />
<glyph unicode="T" horiz-adv-x="1069" d="M72 1329v35h925v-35h-444v-1329h-37v1329h-444z" />
<glyph unicode="U" horiz-adv-x="1169" d="M184 227v1137h37v-1139q0 -80 55 -135t134 -55h350q79 0 133.5 55t54.5 135v1139h37v-1137q0 -95 -65 -161t-160 -66h-350q-95 0 -160.5 66t-65.5 161z" />
<glyph unicode="V" horiz-adv-x="1110" d="M82 1364h37l436 -1315l436 1315h37l-455 -1364h-36z" />
<glyph unicode="W" horiz-adv-x="1671" d="M113 1364h37l333 -1315l336 1315h33l336 -1315l334 1315h37l-353 -1364h-37l-333 1298l-334 -1298h-37z" />
<glyph unicode="X" horiz-adv-x="1187" d="M143 0l432 692l-419 672h37l401 -643l401 643h37l-420 -672l432 -692h-36l-414 662l-414 -662h-37z" />
<glyph unicode="Y" horiz-adv-x="1044" d="M49 1364h39l434 -793l434 793h39l-454 -834v-530h-37v530z" />
<glyph unicode="Z" horiz-adv-x="1155" d="M164 0v33l786 1298h-762v33h803v-33l-786 -1298h786v-33h-827z" />
<glyph unicode="[" horiz-adv-x="546" d="M195 -258v1888h331v-35h-295v-1818h295v-35h-331z" />
<glyph unicode="\" horiz-adv-x="806" d="M82 1384h33l590 -1624h-33z" />
<glyph unicode="]" horiz-adv-x="546" d="M20 -223h295v1818h-295v35h332v-1888h-332v35z" />
<glyph unicode="^" horiz-adv-x="874" d="M113 729l309 635h29l311 -635l-31 -14l-295 610l-295 -610z" />
<glyph unicode="_" horiz-adv-x="827" d="M-4 -12h835v-19h-835v19z" />
<glyph unicode="`" horiz-adv-x="714" d="M164 1337l22 25l222 -207l-21 -22z" />
<glyph unicode="a" horiz-adv-x="1019" d="M164 184v144q0 94 60 149t157 55q129 0 248 -16q119 -17 180 -106v335q0 80 -54.5 135.5t-133.5 55.5h-211q-79 0 -134 -55.5t-55 -135.5v-45h-37v43q0 95 65.5 161.5t160.5 66.5h211q95 0 160 -66t65 -162v-743h-37v117q-56 -79 -180 -109q-112 -28 -248 -28 q-97 0 -157 55t-60 149zM201 184q0 -79 48.5 -124.5t131.5 -45.5q153 0 266 35q69 22 115.5 66.5t46.5 113.5v66q0 71 -47.5 119t-114.5 61q-125 23 -266 23q-83 0 -131.5 -45.5t-48.5 -124.5v-144z" />
<glyph unicode="b" horiz-adv-x="1021" d="M184 0v1364h37v-522q51 72 180 108q147 41 240 41q97 0 157 -55.5t60 -149.5v-602q0 -94 -60 -149t-157 -55t-240 40q-128 36 -180 109v-129h-37zM221 242q0 -69 46.5 -114t115.5 -67q152 -47 258 -47q83 0 131.5 45.5t48.5 124.5v602q0 79 -48.5 124.5t-131.5 45.5 q-106 0 -258 -47q-69 -22 -115.5 -66.5t-46.5 -113.5v-487z" />
<glyph unicode="c" horiz-adv-x="978" d="M164 227v516q0 96 65 162t160 66h232q95 0 160 -66t65 -162v-61h-37v63q0 80 -54.5 135.5t-133.5 55.5h-232q-79 0 -133.5 -55.5t-54.5 -135.5v-520q0 -80 54.5 -135t133.5 -55h232q79 0 133.5 55t54.5 135v68h37v-66q0 -95 -65 -161t-160 -66h-232q-95 0 -160 66 t-65 161z" />
<glyph unicode="d" horiz-adv-x="1021" d="M164 184v602q0 94 60 149.5t157 55.5q93 0 240 -41q129 -36 180 -108v522h37v-1364h-37v129q-52 -73 -180 -109q-143 -40 -240 -40t-157 55t-60 149zM201 184q0 -79 48.5 -124.5t131.5 -45.5q106 0 258 47q69 22 115.5 67t46.5 114v487q0 69 -46.5 113.5t-115.5 66.5 q-152 47 -258 47q-83 0 -131.5 -45.5t-48.5 -124.5v-602z" />
<glyph unicode="e" horiz-adv-x="1003" d="M164 227v516q0 96 65 162t160 66h236q95 0 160 -66t65 -162v-243h-649v-275q0 -80 54.5 -135t133.5 -55h236q79 0 133.5 55t54.5 135v62h37v-60q0 -95 -65 -161t-160 -66h-236q-95 0 -160 66t-65 161zM201 535h612v210q0 80 -54.5 135.5t-133.5 55.5h-236 q-79 0 -133.5 -55.5t-54.5 -135.5v-210z" />
<glyph unicode="f" horiz-adv-x="628" d="M92 938v33h164v166q0 95 65 161t160 66h137v-35h-137q-79 0 -133.5 -55t-54.5 -135v-168h319v-33h-319v-938h-37v938h-164z" />
<glyph unicode="g" horiz-adv-x="1011" d="M164 184v602q0 94 60 149.5t157 55.5q93 0 240 -41q129 -36 180 -108v129h37v-1133q0 -95 -65.5 -161t-160.5 -66h-370v35h370q79 0 134 55t55 135v293q-52 -73 -180 -109q-143 -40 -240 -40t-157 55t-60 149zM201 184q0 -79 48.5 -124.5t131.5 -45.5q106 0 258 47 q69 22 115.5 67t46.5 114v487q0 69 -46.5 113.5t-115.5 66.5q-152 47 -258 47q-83 0 -131.5 -45.5t-48.5 -124.5v-602z" />
<glyph unicode="h" d="M184 0v1364h37v-522q51 72 180 108q147 41 240 41q97 0 157 -55.5t60 -149.5v-786h-37v786q0 79 -48.5 124.5t-131.5 45.5q-106 0 -258 -47q-69 -22 -115.5 -66.5t-46.5 -113.5v-729h-37z" />
<glyph unicode="i" horiz-adv-x="405" d="M184 0v971h37v-971h-37zM184 1184v180h37v-180h-37z" />
<glyph unicode="j" horiz-adv-x="405" d="M-98 -354h94q79 0 133.5 55t54.5 135v1135h37v-1133q0 -95 -65 -161t-160 -66h-94v35zM184 1194v170h37v-170h-37z" />
<glyph unicode="k" horiz-adv-x="874" d="M184 0v1364h37v-868l533 475h49l-539 -484l549 -487h-49l-543 479v-479h-37z" />
<glyph unicode="l" horiz-adv-x="405" d="M184 0v1364h37v-1364h-37z" />
<glyph unicode="m" horiz-adv-x="1669" d="M184 0v971h37v-129q51 72 180 108q147 41 240 41q82 0 139 -42t72 -115q52 78 186 116q147 41 240 41q97 0 157 -55.5t60 -149.5v-786h-37v786q0 79 -48.5 124.5t-131.5 45.5q-106 0 -258 -47q-69 -22 -115.5 -66.5t-46.5 -113.5v-729h-37v786q0 79 -48.5 124.5 t-131.5 45.5q-106 0 -258 -47q-69 -22 -115.5 -66.5t-46.5 -113.5v-729h-37z" />
<glyph unicode="n" d="M184 0v971h37v-129q51 72 180 108q147 41 240 41q97 0 157 -55.5t60 -149.5v-786h-37v786q0 79 -48.5 124.5t-131.5 45.5q-106 0 -258 -47q-69 -22 -115.5 -66.5t-46.5 -113.5v-729h-37z" />
<glyph unicode="o" horiz-adv-x="1026" d="M164 227v516q0 96 65 162t160 66h248q95 0 160 -66t65 -162v-516q0 -95 -65 -161t-160 -66h-248q-95 0 -160 66t-65 161zM201 225q0 -80 54.5 -135t133.5 -55h248q79 0 133.5 55t54.5 135v520q0 80 -54.5 135.5t-133.5 55.5h-248q-79 0 -133.5 -55.5t-54.5 -135.5v-520z " />
<glyph unicode="p" horiz-adv-x="1021" d="M184 -389v1360h37v-129q51 72 180 108q147 41 240 41q97 0 157 -55.5t60 -149.5v-602q0 -94 -60 -149t-157 -55t-240 40q-128 36 -180 109v-518h-37zM221 242q0 -69 46.5 -114t115.5 -67q152 -47 258 -47q83 0 131.5 45.5t48.5 124.5v602q0 79 -48.5 124.5t-131.5 45.5 q-106 0 -258 -47q-69 -22 -115.5 -66.5t-46.5 -113.5v-487z" />
<glyph unicode="q" horiz-adv-x="1021" d="M164 184v602q0 94 60 149.5t157 55.5q93 0 240 -41q129 -36 180 -108v129h37v-1360h-37v518q-52 -73 -180 -109q-143 -40 -240 -40t-157 55t-60 149zM201 184q0 -79 48.5 -124.5t131.5 -45.5q106 0 258 47q69 22 115.5 67t46.5 114v487q0 69 -46.5 113.5t-115.5 66.5 q-152 47 -258 47q-83 0 -131.5 -45.5t-48.5 -124.5v-602z" />
<glyph unicode="r" horiz-adv-x="604" d="M184 0v971h37v-197q40 53 148 113q93 52 200 104l4 -35q-118 -59 -196 -104q-79 -46 -117.5 -88.5t-38.5 -110.5v-653h-37z" />
<glyph unicode="s" horiz-adv-x="983" d="M164 227v45h37v-47q0 -80 54.5 -135t133.5 -55h215q83 0 136 46t53 124v67q0 73 -49.5 110t-149.5 64q-41 12 -99.5 27t-99.5 27q-54 15 -90.5 29.5t-69.5 38t-49 58t-16 81.5v57q0 94 62.5 150.5t162.5 56.5h199q95 0 160 -66t65 -162v-55h-37v57q0 81 -53 136t-135 55 h-199q-86 0 -137 -45.5t-51 -124.5v-59q0 -74 46.5 -109t149.5 -63q33 -9 97 -26t110 -30q110 -30 164.5 -74.5t54.5 -132.5v-65q0 -94 -63.5 -150.5t-161.5 -56.5h-215q-95 0 -160 66t-65 161z" />
<glyph unicode="t" horiz-adv-x="688" d="M61 936v35h175v260h36v-260h344v-35h-344v-707q0 -80 55 -137t134 -57h137v-35h-137q-95 0 -160 66t-65 161v709h-175z" />
<glyph unicode="u" d="M174 184v787h37v-787q0 -79 48.5 -124.5t131.5 -45.5q106 0 258 47q69 22 115.5 67t46.5 114v729h37v-971h-37v129q-52 -73 -180 -109q-143 -40 -240 -40t-157 55t-60 149z" />
<glyph unicode="v" horiz-adv-x="862" d="M51 971h39l340 -924l342 924h39l-362 -971h-37z" />
<glyph unicode="w" horiz-adv-x="1306" d="M102 971h37l191 -914l305 914h37l305 -914l190 914h37l-207 -971h-36l-308 922l-307 -922h-37z" />
<glyph unicode="x" horiz-adv-x="913" d="M113 0l323 487l-321 484h43l299 -451l299 451h43l-322 -484l324 -487h-43l-301 455l-301 -455h-43z" />
<glyph unicode="y" horiz-adv-x="878" d="M61 971h39l340 -924l342 924h39l-362 -971l-146 -389h-37l144 391z" />
<glyph unicode="z" horiz-adv-x="933" d="M154 0v33l598 905h-578v33h621v-33l-598 -905h604v-33h-647z" />
<glyph unicode="{" horiz-adv-x="641" d="M184 639v16l166 144l-69 528q-12 104 40.5 168.5t153.5 87.5q75 16 141 23l5 -33q-70 -8 -140 -23q-83 -18 -128 -72.5t-36 -142.5l70 -524q3 -21 -14 -35l-148 -129l148 -129q17 -14 14 -35l-70 -524q-9 -88 36 -142.5t128 -72.5q70 -15 140 -23l-5 -32q-76 8 -141 22 q-101 23 -153.5 87.5t-40.5 168.5l69 529z" />
<glyph unicode="|" horiz-adv-x="458" d="M215 -410v2048h29v-2048h-29z" />
<glyph unicode="}" horiz-adv-x="641" d="M20 -279q70 8 140 23q83 18 128 72.5t36 142.5l-70 524q-3 21 14 35l148 129l-148 129q-17 14 -14 35l70 524q9 88 -36 142.5t-128 72.5q-70 15 -140 23l5 33q66 -7 141 -23q101 -23 153.5 -87.5t40.5 -168.5l-69 -528l166 -144v-16l-166 -143l69 -529 q12 -104 -40.5 -168.5t-153.5 -87.5q-65 -14 -141 -22z" />
<glyph unicode="~" horiz-adv-x="897" d="M72 451l26 43q50 80 138.5 99t171.5 -32l100 -63q67 -43 143 -25.5t119 86.5l27 41l28 -18l-26 -43q-50 -80 -139.5 -100.5t-172.5 30.5l-100 63q-67 43 -141 27t-119 -86l-27 -41z" />
<glyph unicode="&#xa1;" horiz-adv-x="430" d="M195 811v160h41v-160h-41zM197 324l6 258h24l6 -258v-713h-36v713z" />
<glyph unicode="&#xa2;" horiz-adv-x="1030" d="M184 442v476q0 95 65.5 161t160.5 66h102v219h37v-219h92q95 0 160 -66t65 -161v-56h-37v58q0 80 -54.5 135t-133.5 55h-231q-79 0 -134 -55t-55 -135v-480q0 -80 55 -135t134 -55h231q79 0 133.5 55t54.5 135v62h37v-60q0 -95 -65 -161t-160 -66h-92v-215h-37v215h-102 q-95 0 -160.5 66t-65.5 161z" />
<glyph unicode="&#xa3;" horiz-adv-x="1091" d="M102 0v35h244v1102q0 95 65 161t160 66h260v-35h-260q-79 0 -133.5 -55t-54.5 -135v-332h365v-35h-365v-737h309q79 0 134 55t55 135v62h37v-60q0 -95 -65.5 -161t-160.5 -66h-590z" />
<glyph unicode="&#xa4;" horiz-adv-x="1193" d="M184 199l140 137q-29 47 -29 102v496q0 53 29 100l-140 140l23 22l137 -137q53 53 127 53h252q74 0 127 -53l137 137l23 -22l-142 -140q31 -45 31 -100v-496q0 -52 -31 -102l142 -137l-23 -23l-137 135q-51 -51 -127 -51h-252q-76 0 -127 51l-137 -135zM328 440 q0 -63 41 -106t106 -43h244q66 0 106.5 43t40.5 106v492q0 63 -40.5 106t-106.5 43h-244q-65 0 -106 -43t-41 -106v-492z" />
<glyph unicode="&#xa5;" horiz-adv-x="987" d="M123 1364h39l332 -793l331 793h39l-284 -672h264v-30h-277l-55 -132v-120h332v-31h-332v-379h-37v379h-332v31h332v120l-55 132h-277v30h263z" />
<glyph unicode="&#xa6;" horiz-adv-x="458" d="M215 -410v854h29v-854h-29zM215 784v854h29v-854h-29z" />
<glyph unicode="&#xa7;" horiz-adv-x="1028" d="M184 -66h37v-98q0 -80 53.5 -135t135.5 -55h198q86 0 137.5 45.5t51.5 124.5v295q0 74 -48 112t-149 64q-63 16 -186 47t-224 57l9 33q86 -22 208.5 -54.5t200.5 -52.5q112 -29 169 -73t57 -133v-293q0 -94 -63 -150.5t-163 -56.5h-198q-95 0 -160.5 66t-65.5 161v96z M195 864v293q0 94 62.5 150.5t162.5 56.5h198q95 0 160.5 -66t65.5 -161v-97h-37v99q0 80 -53.5 135t-135.5 55h-198q-86 0 -137.5 -45.5t-51.5 -124.5v-295q0 -74 48 -112t149 -64q63 -16 186 -47t224 -57l-9 -33q-84 21 -206.5 53.5t-202.5 52.5q-111 28 -168 73t-57 134z " />
<glyph unicode="&#xa8;" horiz-adv-x="821" d="M246 1139v96h43v-96h-43zM532 1139v96h43v-96h-43z" />
<glyph unicode="&#xa9;" horiz-adv-x="1355" d="M184 182v1000q0 77 52.5 129.5t128.5 52.5h626q76 0 128 -52.5t52 -129.5v-1000q0 -77 -52 -129.5t-128 -52.5h-626q-76 0 -128.5 52.5t-52.5 129.5zM213 178q0 -64 43.5 -107.5t108.5 -43.5h626q65 0 108.5 43.5t43.5 107.5v1008q0 64 -43.5 107.5t-108.5 43.5h-626 q-65 0 -108.5 -43.5t-43.5 -107.5v-1008zM451 487v392q0 77 53 130.5t129 53.5h100q76 0 129 -53.5t53 -130.5v-72h-30v74q0 65 -44 109t-108 44h-100q-64 0 -108 -44t-44 -109v-396q0 -65 44 -109t108 -44h100q64 0 108 44t44 109v78h30v-76q0 -77 -53 -130.5t-129 -53.5 h-100q-76 0 -129 53.5t-53 130.5z" />
<glyph unicode="&#xaa;" horiz-adv-x="694" d="M143 922v82q0 56 34 86t93 30q80 0 144 -10q56 -5 98 -47v170q0 42 -30 73t-72 31h-123q-41 0 -72 -31.5t-31 -72.5v-23h-28v21q0 57 37 95t94 38h123q57 0 94 -38t37 -95v-418h-29v55q-44 -39 -98 -51q-55 -14 -144 -14q-59 0 -93 31.5t-34 87.5zM172 922 q0 -42 27.5 -67.5t70.5 -25.5q82 0 154 19q36 12 62 37.5t26 60.5v39q0 38 -26 63.5t-62 30.5q-72 13 -154 13q-44 0 -71 -23.5t-27 -64.5v-82z" />
<glyph unicode="&#xab;" horiz-adv-x="987" d="M123 487l319 410l23 -18l-305 -392l305 -391l-23 -18zM471 487l320 410l22 -18l-305 -392l305 -391l-22 -18z" />
<glyph unicode="&#xac;" horiz-adv-x="1167" d="M133 647v31h850v-440h-33v409h-817z" />
<glyph unicode="&#xad;" horiz-adv-x="706" d="M123 588v33h461v-33h-461z" />
<glyph unicode="&#xae;" horiz-adv-x="1042" d="M143 729v453q0 77 52.5 129.5t128.5 52.5h395q76 0 128 -52.5t52 -129.5v-453q0 -77 -52 -129.5t-128 -52.5h-395q-76 0 -128.5 52.5t-52.5 129.5zM168 725q0 -65 46 -110.5t110 -45.5h395q64 0 109.5 45.5t45.5 110.5v461q0 64 -45 109.5t-110 45.5h-395 q-65 0 -110.5 -45.5t-45.5 -109.5v-461zM403 739v447h183q34 0 56 -23t22 -57v-92q0 -33 -17.5 -53t-44.5 -23l86 -199h-26l-87 199h-147v-199h-25zM428 961h158q53 0 53 51v96q0 24 -14.5 39.5t-38.5 15.5h-158v-202z" />
<glyph unicode="&#xaf;" horiz-adv-x="901" d="M246 1182v28h409v-28h-409z" />
<glyph unicode="&#xb0;" horiz-adv-x="600" d="M164 1059v260q0 21 12 33t33 12h182q21 0 33 -12t12 -33v-260q0 -21 -12 -33t-33 -12h-182q-21 0 -33 12t-12 33zM193 1057q0 -17 16 -17h182q17 0 17 17v264q0 16 -17 16h-182q-16 0 -16 -16v-264z" />
<glyph unicode="&#xb1;" horiz-adv-x="1136" d="M143 0v31h408v534h-408v31h408v410h33v-410h409v-31h-409v-534h409v-31h-850z" />
<glyph unicode="&#xb2;" horiz-adv-x="1548" d="M82 1364h1384l-692 -1384z" />
<glyph unicode="&#xb3;" horiz-adv-x="1548" d="M82 0l692 1384l692 -1384h-1384z" />
<glyph unicode="&#xb4;" horiz-adv-x="714" d="M307 1155l221 207l23 -25l-223 -204z" />
<glyph unicode="&#xb5;" d="M174 -389v1360h37v-787q0 -79 48.5 -124.5t131.5 -45.5q106 0 258 47q69 22 115.5 67t46.5 114v729h37v-971h-37v129q-52 -73 -180 -109q-143 -40 -240 -40q-123 0 -180 81v-450h-37z" />
<glyph unicode="&#xb6;" horiz-adv-x="1017" d="M133 688v631q0 21 12 33t33 12h645v-1364h-28v1337h-168v-1681q0 -21 -12 -33t-33 -12h-193v27h193q16 0 16 16v1683h-420q-16 0 -16 -16v-635q0 -16 16 -16h213v-27h-213q-21 0 -33 12t-12 33z" />
<glyph unicode="&#xb7;" horiz-adv-x="409" d="M184 596v160h41v-160h-41z" />
<glyph unicode="&#xb8;" horiz-adv-x="641" d="M246 -254l112 272l37 -8l-119 -278z" />
<glyph unicode="&#xb9;" horiz-adv-x="1691" d="M195 -20v1404l1404 -702z" />
<glyph unicode="&#xba;" horiz-adv-x="690" d="M143 946v285q0 57 37 95t94 38h142q57 0 94 -38t37 -95v-285q0 -57 -37 -95t-94 -38h-142q-57 0 -94 38t-37 95zM172 944q0 -42 30 -72t72 -30h142q42 0 72 30t30 72v289q0 42 -30 73t-72 31h-142q-42 0 -72 -31t-30 -73v-289z" />
<glyph unicode="&#xbb;" horiz-adv-x="987" d="M174 96l305 391l-305 392l23 18l319 -410l-319 -409zM522 96l305 391l-305 392l23 18l319 -410l-319 -409z" />
<glyph unicode="&#xbc;" horiz-adv-x="1339" d="M184 0v971h971v-971h-971z" />
<glyph unicode="&#xbd;" horiz-adv-x="1753" d="M195 0v1364h1364v-1364h-1364z" />
<glyph unicode="&#xbe;" horiz-adv-x="1277" d="M184 -20v1011l1012 -506z" />
<glyph unicode="&#xbf;" horiz-adv-x="1042" d="M133 -16q0 52 4.5 80.5t23.5 56t46.5 46.5t85.5 54q57 35 151 88q62 34 83.5 72t21.5 111v157h37v-157q0 -61 -16.5 -101.5t-39.5 -61t-67 -46.5q-30 -18 -79 -45.5t-71 -40.5q-55 -33 -78.5 -50t-41 -41.5t-20.5 -48t-3 -71.5v-152q0 -80 54.5 -135t133.5 -55h295 q79 0 134 55t55 135v148h37v-144q0 -95 -65.5 -161t-160.5 -66h-295q-95 0 -160 66t-65 161v146zM547 811v160h41v-160h-41z" />
<glyph unicode="&#xc0;" horiz-adv-x="1183" d="M92 0l483 1364h33l484 -1364h-37l-148 412h-631l-147 -412h-37zM289 446h606l-303 871zM375 1706l22 25l221 -207l-20 -23z" />
<glyph unicode="&#xc1;" horiz-adv-x="1183" d="M92 0l483 1364h33l484 -1364h-37l-148 412h-631l-147 -412h-37zM289 446h606l-303 871zM559 1524l221 207l23 -25l-223 -205z" />
<glyph unicode="&#xc2;" horiz-adv-x="1183" d="M92 0l483 1364h33l484 -1364h-37l-148 412h-631l-147 -412h-37zM289 446h606l-303 871zM387 1489l205 223l205 -223l-25 -21l-180 197l-180 -197z" />
<glyph unicode="&#xc3;" horiz-adv-x="1183" d="M92 0l483 1364h33l484 -1364h-37l-148 412h-631l-147 -412h-37zM289 446h606l-303 871zM365 1516l28 86q16 49 68 30l276 -94q16 -5 25 12l29 86l30 -8l-28 -86q-17 -50 -66 -33l-278 95q-17 7 -23 -11l-31 -88z" />
<glyph unicode="&#xc4;" horiz-adv-x="1183" d="M92 0l483 1364h33l484 -1364h-37l-148 412h-631l-147 -412h-37zM289 446h606l-303 871zM428 1518v96h43v-96h-43zM715 1518v96h43v-96h-43z" />
<glyph unicode="&#xc5;" horiz-adv-x="1183" d="M92 0l483 1364h33l484 -1364h-37l-148 412h-631l-147 -412h-37zM289 446h606l-303 871zM483 1493v125q0 21 12 33t33 12h129q21 0 33 -12t12 -33v-125q0 -21 -12 -33t-33 -12h-129q-21 0 -33 12t-12 33zM510 1489q0 -16 16 -16h133q17 0 17 16v133q0 16 -17 16h-133 q-16 0 -16 -16v-133z" />
<glyph unicode="&#xc6;" horiz-adv-x="1636" d="M92 0l483 1364h906v-35h-860l208 -590h588v-34h-575l237 -670h414v-35h-438l-148 412h-631l-147 -412h-37zM289 446h606l-303 871z" />
<glyph unicode="&#xc7;" horiz-adv-x="1185" d="M184 227v910q0 95 65.5 161t160.5 66h376q95 0 160.5 -66t65.5 -161v-164h-37v166q0 80 -55 135t-134 55h-376q-79 0 -134 -55t-55 -135v-914q0 -80 55 -135t134 -55h376q79 0 134 55t55 135v172h37v-170q0 -95 -65.5 -161t-160.5 -66h-159l-115 -268l-31 14l105 254 h-176q-95 0 -160.5 66t-65.5 161z" />
<glyph unicode="&#xc8;" horiz-adv-x="1075" d="M195 0v1364h725v-35h-689v-590h625v-34h-625v-670h701v-35h-737zM393 1706l23 25l221 -207l-21 -23z" />
<glyph unicode="&#xc9;" horiz-adv-x="1075" d="M195 0v1364h725v-35h-689v-590h625v-34h-625v-670h701v-35h-737zM465 1524l221 207l23 -25l-224 -205z" />
<glyph unicode="&#xca;" horiz-adv-x="1075" d="M195 0v1364h725v-35h-689v-590h625v-34h-625v-670h701v-35h-737zM356 1489l205 223l205 -223l-25 -21l-180 197l-180 -197z" />
<glyph unicode="&#xcb;" horiz-adv-x="1075" d="M195 0v1364h725v-35h-689v-590h625v-34h-625v-670h701v-35h-737zM391 1518v96h43v-96h-43zM678 1518v96h43v-96h-43z" />
<glyph unicode="&#xcc;" horiz-adv-x="446" d="M16 1706l23 25l221 -207l-20 -23zM205 0v1364h37v-1364h-37z" />
<glyph unicode="&#xcd;" horiz-adv-x="446" d="M193 1524l221 207l22 -25l-223 -205zM205 0v1364h37v-1364h-37z" />
<glyph unicode="&#xce;" horiz-adv-x="446" d="M18 1489l205 223l205 -223l-25 -21l-180 197l-180 -197zM205 0v1364h37v-1364h-37z" />
<glyph unicode="&#xcf;" horiz-adv-x="446" d="M59 1518v96h43v-96h-43zM205 0v1364h37v-1364h-37zM346 1518v96h43v-96h-43z" />
<glyph unicode="&#xd0;" horiz-adv-x="1241" d="M92 672v28h174v664h565q95 0 160.5 -66t65.5 -161v-910q0 -95 -65.5 -161t-160.5 -66h-565v672h-174zM303 35h528q79 0 134 55t55 135v914q0 80 -55 135t-134 55h-528v-629h303v-28h-303v-637z" />
<glyph unicode="&#xd1;" horiz-adv-x="1226" d="M195 0v1364h34l768 -1294v1294h35v-1364h-35l-768 1292v-1292h-34zM377 1516l29 86q16 49 67 30l277 -94q15 -5 24 12l29 86l31 -8l-29 -86q-17 -50 -66 -33l-278 95q-17 7 -23 -11l-30 -88z" />
<glyph unicode="&#xd2;" horiz-adv-x="1206" d="M184 227v910q0 95 65.5 161t160.5 66h387q95 0 160 -66t65 -161v-910q0 -95 -65 -161t-160 -66h-387q-95 0 -160.5 66t-65.5 161zM221 225q0 -80 55 -135t134 -55h387q79 0 133.5 55t54.5 135v914q0 80 -54.5 135t-133.5 55h-387q-79 0 -134 -55t-55 -135v-914zM428 1706 l23 25l221 -207l-21 -23z" />
<glyph unicode="&#xd3;" horiz-adv-x="1206" d="M184 227v910q0 95 65.5 161t160.5 66h387q95 0 160 -66t65 -161v-910q0 -95 -65 -161t-160 -66h-387q-95 0 -160.5 66t-65.5 161zM221 225q0 -80 55 -135t134 -55h387q79 0 133.5 55t54.5 135v914q0 80 -54.5 135t-133.5 55h-387q-79 0 -134 -55t-55 -135v-914zM524 1524 l221 207l23 -25l-223 -205z" />
<glyph unicode="&#xd4;" horiz-adv-x="1206" d="M184 227v910q0 95 65.5 161t160.5 66h387q95 0 160 -66t65 -161v-910q0 -95 -65 -161t-160 -66h-387q-95 0 -160.5 66t-65.5 161zM221 225q0 -80 55 -135t134 -55h387q79 0 133.5 55t54.5 135v914q0 80 -54.5 135t-133.5 55h-387q-79 0 -134 -55t-55 -135v-914zM397 1489 l205 223l205 -223l-25 -21l-180 197l-180 -197z" />
<glyph unicode="&#xd5;" horiz-adv-x="1206" d="M184 227v910q0 95 65.5 161t160.5 66h387q95 0 160 -66t65 -161v-910q0 -95 -65 -161t-160 -66h-387q-95 0 -160.5 66t-65.5 161zM221 225q0 -80 55 -135t134 -55h387q79 0 133.5 55t54.5 135v914q0 80 -54.5 135t-133.5 55h-387q-79 0 -134 -55t-55 -135v-914zM375 1516 l28 86q16 49 68 30l277 -94q15 -5 24 12l29 86l30 -8l-28 -86q-17 -50 -66 -33l-278 95q-17 7 -23 -11l-30 -88z" />
<glyph unicode="&#xd6;" horiz-adv-x="1206" d="M184 227v910q0 95 65.5 161t160.5 66h387q95 0 160 -66t65 -161v-910q0 -95 -65 -161t-160 -66h-387q-95 0 -160.5 66t-65.5 161zM221 225q0 -80 55 -135t134 -55h387q79 0 133.5 55t54.5 135v914q0 80 -54.5 135t-133.5 55h-387q-79 0 -134 -55t-55 -135v-914zM438 1518 v96h43v-96h-43zM725 1518v96h43v-96h-43z" />
<glyph unicode="&#xd7;" horiz-adv-x="913" d="M143 371l291 291l-287 286l23 25l287 -289l288 289l25 -25l-289 -289l289 -288l-22 -23l-289 289l-291 -291z" />
<glyph unicode="&#xd8;" horiz-adv-x="1226" d="M154 -88l94 166q-53 63 -53 149v910q0 95 65 161t160 66h387q86 0 147 -55l90 157l29 -14l-96 -166q55 -64 55 -149v-910q0 -95 -65 -161t-160 -66h-387q-89 0 -150 55l-90 -157zM231 225q0 -68 37 -114l668 1167q-54 51 -129 51h-387q-79 0 -134 -55t-55 -135v-914z M289 86q54 -51 131 -51h387q79 0 133.5 55t54.5 135v914q0 62 -37 112z" />
<glyph unicode="&#xd9;" horiz-adv-x="1169" d="M184 227v1137h37v-1139q0 -80 55 -135t134 -55h350q79 0 133.5 55t54.5 135v1139h37v-1137q0 -95 -65 -161t-160 -66h-350q-95 0 -160.5 66t-65.5 161zM420 1706l22 25l222 -207l-21 -23z" />
<glyph unicode="&#xda;" horiz-adv-x="1169" d="M184 227v1137h37v-1139q0 -80 55 -135t134 -55h350q79 0 133.5 55t54.5 135v1139h37v-1137q0 -95 -65 -161t-160 -66h-350q-95 0 -160.5 66t-65.5 161zM498 1524l221 207l22 -25l-223 -205z" />
<glyph unicode="&#xdb;" horiz-adv-x="1169" d="M184 227v1137h37v-1139q0 -80 55 -135t134 -55h350q79 0 133.5 55t54.5 135v1139h37v-1137q0 -95 -65 -161t-160 -66h-350q-95 0 -160.5 66t-65.5 161zM379 1489l205 223l204 -223l-24 -21l-180 197l-181 -197z" />
<glyph unicode="&#xdc;" horiz-adv-x="1169" d="M184 227v1137h37v-1139q0 -80 55 -135t134 -55h350q79 0 133.5 55t54.5 135v1139h37v-1137q0 -95 -65 -161t-160 -66h-350q-95 0 -160.5 66t-65.5 161zM420 1518v96h43v-96h-43zM707 1518v96h43v-96h-43z" />
<glyph unicode="&#xdd;" horiz-adv-x="1044" d="M49 1364h39l434 -793l434 793h39l-454 -834v-530h-37v530zM465 1524l221 207l23 -25l-224 -205z" />
<glyph unicode="&#xde;" horiz-adv-x="1050" d="M195 0v1364h36v-295h502q95 0 160 -66t65 -161v-293q0 -95 -65 -161t-160 -66h-502v-322h-36zM231 356h502q79 0 134 55.5t55 135.5v297q0 80 -55 135t-134 55h-502v-678z" />
<glyph unicode="&#xdf;" horiz-adv-x="1245" d="M184 0v1137q0 95 65.5 161t160.5 66h110q95 0 160 -66t65 -161v-328q0 -82 11.5 -118.5t56.5 -72.5q75 -61 152 -118q50 -38 74 -59t46.5 -49.5t29.5 -58t7 -71.5v-55q0 -94 -63.5 -150.5t-161.5 -56.5h-195q-95 0 -160 66t-65 161v45h37v-47q0 -80 54.5 -135t133.5 -55 h195q83 0 135.5 46t52.5 124v57q0 20 -2.5 36.5t-4.5 28.5t-12 26.5t-13 21t-20 22t-22 20t-30 24.5t-33 26q-107 85 -155 127q-54 46 -69 84.5t-15 134.5v326q0 80 -55 135t-134 55h-110q-79 0 -134 -55t-55 -135v-1139h-37z" />
<glyph unicode="&#xe0;" horiz-adv-x="1019" d="M164 184v144q0 94 60 149t157 55q129 0 248 -16q119 -17 180 -106v335q0 80 -54.5 135.5t-133.5 55.5h-211q-79 0 -134 -55.5t-55 -135.5v-45h-37v43q0 95 65.5 161.5t160.5 66.5h211q95 0 160 -66t65 -162v-743h-37v117q-56 -79 -180 -109q-112 -28 -248 -28 q-97 0 -157 55t-60 149zM201 184q0 -79 48.5 -124.5t131.5 -45.5q153 0 266 35q69 22 115.5 66.5t46.5 113.5v66q0 71 -47.5 119t-114.5 61q-125 23 -266 23q-83 0 -131.5 -45.5t-48.5 -124.5v-144zM367 1337l22 25l221 -207l-20 -22z" />
<glyph unicode="&#xe1;" horiz-adv-x="1019" d="M164 184v144q0 94 60 149t157 55q129 0 248 -16q119 -17 180 -106v335q0 80 -54.5 135.5t-133.5 55.5h-211q-79 0 -134 -55.5t-55 -135.5v-45h-37v43q0 95 65.5 161.5t160.5 66.5h211q95 0 160 -66t65 -162v-743h-37v117q-56 -79 -180 -109q-112 -28 -248 -28 q-97 0 -157 55t-60 149zM201 184q0 -79 48.5 -124.5t131.5 -45.5q153 0 266 35q69 22 115.5 66.5t46.5 113.5v66q0 71 -47.5 119t-114.5 61q-125 23 -266 23q-83 0 -131.5 -45.5t-48.5 -124.5v-144zM455 1155l221 207l22 -25l-223 -204z" />
<glyph unicode="&#xe2;" horiz-adv-x="1019" d="M164 184v144q0 94 60 149t157 55q129 0 248 -16q119 -17 180 -106v335q0 80 -54.5 135.5t-133.5 55.5h-211q-79 0 -134 -55.5t-55 -135.5v-45h-37v43q0 95 65.5 161.5t160.5 66.5h211q95 0 160 -66t65 -162v-743h-37v117q-56 -79 -180 -109q-112 -28 -248 -28 q-97 0 -157 55t-60 149zM201 184q0 -79 48.5 -124.5t131.5 -45.5q153 0 266 35q69 22 115.5 66.5t46.5 113.5v66q0 71 -47.5 119t-114.5 61q-125 23 -266 23q-83 0 -131.5 -45.5t-48.5 -124.5v-144zM319 1120l205 223l205 -223l-24 -20l-181 196l-180 -196z" />
<glyph unicode="&#xe3;" horiz-adv-x="1019" d="M164 184v144q0 94 60 149t157 55q129 0 248 -16q119 -17 180 -106v335q0 80 -54.5 135.5t-133.5 55.5h-211q-79 0 -134 -55.5t-55 -135.5v-45h-37v43q0 95 65.5 161.5t160.5 66.5h211q95 0 160 -66t65 -162v-743h-37v117q-56 -79 -180 -109q-112 -28 -248 -28 q-97 0 -157 55t-60 149zM201 184q0 -79 48.5 -124.5t131.5 -45.5q153 0 266 35q69 22 115.5 66.5t46.5 113.5v66q0 71 -47.5 119t-114.5 61q-125 23 -266 23q-83 0 -131.5 -45.5t-48.5 -124.5v-144zM303 1153l29 86q16 50 67 31l277 -94q15 -5 24 12l29 86l31 -8l-29 -86 q-17 -49 -65 -33l-279 94q-16 7 -22 -10l-31 -88z" />
<glyph unicode="&#xe4;" horiz-adv-x="1019" d="M164 184v144q0 94 60 149t157 55q129 0 248 -16q119 -17 180 -106v335q0 80 -54.5 135.5t-133.5 55.5h-211q-79 0 -134 -55.5t-55 -135.5v-45h-37v43q0 95 65.5 161.5t160.5 66.5h211q95 0 160 -66t65 -162v-743h-37v117q-56 -79 -180 -109q-112 -28 -248 -28 q-97 0 -157 55t-60 149zM201 184q0 -79 48.5 -124.5t131.5 -45.5q153 0 266 35q69 22 115.5 66.5t46.5 113.5v66q0 71 -47.5 119t-114.5 61q-125 23 -266 23q-83 0 -131.5 -45.5t-48.5 -124.5v-144zM356 1139v96h43v-96h-43zM643 1139v96h43v-96h-43z" />
<glyph unicode="&#xe5;" horiz-adv-x="1019" d="M164 184v144q0 94 60 149t157 55q129 0 248 -16q119 -17 180 -106v335q0 80 -54.5 135.5t-133.5 55.5h-211q-79 0 -134 -55.5t-55 -135.5v-45h-37v43q0 95 65.5 161.5t160.5 66.5h211q95 0 160 -66t65 -162v-743h-37v117q-56 -79 -180 -109q-112 -28 -248 -28 q-97 0 -157 55t-60 149zM201 184q0 -79 48.5 -124.5t131.5 -45.5q153 0 266 35q69 22 115.5 66.5t46.5 113.5v66q0 71 -47.5 119t-114.5 61q-125 23 -266 23q-83 0 -131.5 -45.5t-48.5 -124.5v-144zM416 1147v125q0 21 12 33t33 12h129q21 0 33 -12t12 -33v-125 q0 -21 -12 -33t-33 -12h-129q-21 0 -33 12t-12 33zM442 1143q0 -17 17 -17h133q16 0 16 17v133q0 16 -16 16h-133q-17 0 -17 -16v-133z" />
<glyph unicode="&#xe6;" horiz-adv-x="1654" d="M164 184v144q0 94 60 149t157 55q121 0 254 -16q117 -14 180 -106v335q0 80 -54.5 135.5t-133.5 55.5h-217q-79 0 -134 -55.5t-55 -135.5v-45h-37v43q0 95 65.5 161.5t160.5 66.5h217q69 0 124.5 -37t82.5 -98q25 61 80.5 98t125.5 37h236q95 0 160 -66t65 -162v-243 h-649v-283q3 -77 56.5 -129.5t131.5 -52.5h236q79 0 133.5 55t54.5 135v62h37v-60q0 -95 -65 -161t-160 -66h-236q-68 0 -123.5 40t-82.5 101q-57 -98 -199 -135q-102 -26 -254 -26q-97 0 -157 55t-60 149zM201 184q0 -80 48.5 -126t131.5 -46q165 0 272 33q67 22 114 67.5 t48 114.5v74q-3 68 -50.5 115.5t-111.5 60.5q-125 23 -272 23q-83 0 -131.5 -46t-48.5 -126v-144zM852 535h612v210q0 80 -54.5 135.5t-133.5 55.5h-236q-78 0 -132.5 -53t-55.5 -131v-217z" />
<glyph unicode="&#xe7;" horiz-adv-x="978" d="M164 227v516q0 96 65 162t160 66h232q95 0 160 -66t65 -162v-61h-37v63q0 80 -54.5 135.5t-133.5 55.5h-232q-79 0 -133.5 -55.5t-54.5 -135.5v-520q0 -80 54.5 -135t133.5 -55h232q79 0 133.5 55t54.5 135v68h37v-66q0 -95 -65 -161t-160 -66h-86l-115 -268l-31 14 l105 254h-105q-95 0 -160 66t-65 161z" />
<glyph unicode="&#xe8;" horiz-adv-x="1003" d="M164 227v516q0 96 65 162t160 66h236q95 0 160 -66t65 -162v-243h-649v-275q0 -80 54.5 -135t133.5 -55h236q79 0 133.5 55t54.5 135v62h37v-60q0 -95 -65 -161t-160 -66h-236q-95 0 -160 66t-65 161zM201 535h612v210q0 80 -54.5 135.5t-133.5 55.5h-236 q-79 0 -133.5 -55.5t-54.5 -135.5v-210zM338 1337l22 25l222 -207l-21 -22z" />
<glyph unicode="&#xe9;" horiz-adv-x="1003" d="M164 227v516q0 96 65 162t160 66h236q95 0 160 -66t65 -162v-243h-649v-275q0 -80 54.5 -135t133.5 -55h236q79 0 133.5 55t54.5 135v62h37v-60q0 -95 -65 -161t-160 -66h-236q-95 0 -160 66t-65 161zM201 535h612v210q0 80 -54.5 135.5t-133.5 55.5h-236 q-79 0 -133.5 -55.5t-54.5 -135.5v-210zM418 1155l221 207l23 -25l-224 -204z" />
<glyph unicode="&#xea;" horiz-adv-x="1003" d="M164 227v516q0 96 65 162t160 66h236q95 0 160 -66t65 -162v-243h-649v-275q0 -80 54.5 -135t133.5 -55h236q79 0 133.5 55t54.5 135v62h37v-60q0 -95 -65 -161t-160 -66h-236q-95 0 -160 66t-65 161zM201 535h612v210q0 80 -54.5 135.5t-133.5 55.5h-236 q-79 0 -133.5 -55.5t-54.5 -135.5v-210zM301 1120l205 223l205 -223l-25 -20l-180 196l-180 -196z" />
<glyph unicode="&#xeb;" horiz-adv-x="1003" d="M164 227v516q0 96 65 162t160 66h236q95 0 160 -66t65 -162v-243h-649v-275q0 -80 54.5 -135t133.5 -55h236q79 0 133.5 55t54.5 135v62h37v-60q0 -95 -65 -161t-160 -66h-236q-95 0 -160 66t-65 161zM201 535h612v210q0 80 -54.5 135.5t-133.5 55.5h-236 q-79 0 -133.5 -55.5t-54.5 -135.5v-210zM338 1139v96h43v-96h-43zM625 1139v96h43v-96h-43z" />
<glyph unicode="&#xec;" horiz-adv-x="405" d="M0 1337l23 25l221 -207l-21 -22zM184 0v971h37v-971h-37z" />
<glyph unicode="&#xed;" horiz-adv-x="405" d="M168 1155l221 207l23 -25l-224 -204zM184 0v971h37v-971h-37z" />
<glyph unicode="&#xee;" horiz-adv-x="405" d="M-2 1120l205 223l205 -223l-25 -20l-180 196l-180 -196zM184 0v971h37v-971h-37z" />
<glyph unicode="&#xef;" horiz-adv-x="405" d="M39 1139v96h43v-96h-43zM184 0v971h37v-971h-37zM326 1139v96h43v-96h-43z" />
<glyph unicode="&#xf0;" horiz-adv-x="1011" d="M164 227v351q0 94 60 149t157 55q173 0 295 -28q126 -27 180 -109v494q0 74 -49 129l-150 -172l-24 20l151 172q-51 41 -116 41h-392v35h392q79 0 141 -49l98 110l23 -18l-99 -113q62 -69 62 -157v-910q0 -95 -65 -161t-160 -66h-279q-95 0 -160 66t-65 161zM201 225 q0 -80 54.5 -135t133.5 -55h279q79 0 133.5 55t54.5 135v307q0 69 -47 115t-115 66q-120 35 -313 35q-83 0 -131.5 -45.5t-48.5 -124.5v-353z" />
<glyph unicode="&#xf1;" d="M184 0v971h37v-129q51 72 180 108q147 41 240 41q97 0 157 -55.5t60 -149.5v-786h-37v786q0 79 -48.5 124.5t-131.5 45.5q-106 0 -258 -47q-69 -22 -115.5 -66.5t-46.5 -113.5v-729h-37zM276 1153l29 86q16 50 68 31l276 -94q16 -5 25 12l28 86l31 -8l-28 -86 q-17 -50 -66 -33l-279 94q-16 7 -22 -10l-31 -88z" />
<glyph unicode="&#xf2;" horiz-adv-x="1026" d="M164 227v516q0 96 65 162t160 66h248q95 0 160 -66t65 -162v-516q0 -95 -65 -161t-160 -66h-248q-95 0 -160 66t-65 161zM201 225q0 -80 54.5 -135t133.5 -55h248q79 0 133.5 55t54.5 135v520q0 80 -54.5 135.5t-133.5 55.5h-248q-79 0 -133.5 -55.5t-54.5 -135.5v-520z M358 1337l23 25l221 -207l-20 -22z" />
<glyph unicode="&#xf3;" horiz-adv-x="1026" d="M164 227v516q0 96 65 162t160 66h248q95 0 160 -66t65 -162v-516q0 -95 -65 -161t-160 -66h-248q-95 0 -160 66t-65 161zM201 225q0 -80 54.5 -135t133.5 -55h248q79 0 133.5 55t54.5 135v520q0 80 -54.5 135.5t-133.5 55.5h-248q-79 0 -133.5 -55.5t-54.5 -135.5v-520z M426 1155l221 207l23 -25l-224 -204z" />
<glyph unicode="&#xf4;" horiz-adv-x="1026" d="M164 227v516q0 96 65 162t160 66h248q95 0 160 -66t65 -162v-516q0 -95 -65 -161t-160 -66h-248q-95 0 -160 66t-65 161zM201 225q0 -80 54.5 -135t133.5 -55h248q79 0 133.5 55t54.5 135v520q0 80 -54.5 135.5t-133.5 55.5h-248q-79 0 -133.5 -55.5t-54.5 -135.5v-520z M307 1120l205 223l205 -223l-25 -20l-180 196l-180 -196z" />
<glyph unicode="&#xf5;" horiz-adv-x="1026" d="M164 227v516q0 96 65 162t160 66h248q95 0 160 -66t65 -162v-516q0 -95 -65 -161t-160 -66h-248q-95 0 -160 66t-65 161zM201 225q0 -80 54.5 -135t133.5 -55h248q79 0 133.5 55t54.5 135v520q0 80 -54.5 135.5t-133.5 55.5h-248q-79 0 -133.5 -55.5t-54.5 -135.5v-520z M291 1153l28 86q16 50 68 31l277 -94q15 -5 24 12l29 86l31 -8l-29 -86q-17 -50 -66 -33l-278 94q-17 7 -23 -10l-30 -88z" />
<glyph unicode="&#xf6;" horiz-adv-x="1026" d="M164 227v516q0 96 65 162t160 66h248q95 0 160 -66t65 -162v-516q0 -95 -65 -161t-160 -66h-248q-95 0 -160 66t-65 161zM201 225q0 -80 54.5 -135t133.5 -55h248q79 0 133.5 55t54.5 135v520q0 80 -54.5 135.5t-133.5 55.5h-248q-79 0 -133.5 -55.5t-54.5 -135.5v-520z M348 1139v96h43v-96h-43zM635 1139v96h43v-96h-43z" />
<glyph unicode="&#xf7;" horiz-adv-x="1075" d="M154 647v31h768v-31h-768zM518 238v163h37v-163h-37zM518 924v163h37v-163h-37z" />
<glyph unicode="&#xf8;" horiz-adv-x="1026" d="M164 -88l80 139q-80 67 -80 176v516q0 96 65 162t160 66h248q59 0 117 -33l77 135l29 -14l-80 -139q82 -69 82 -177v-516q0 -95 -65 -161t-160 -66h-248q-65 0 -119 33l-77 -135zM201 225q0 -88 61 -143l473 825q-47 29 -98 29h-248q-79 0 -133.5 -55.5t-54.5 -135.5 v-520zM287 63q45 -28 102 -28h248q79 0 133.5 55t54.5 135v520q0 87 -63 144z" />
<glyph unicode="&#xf9;" d="M174 184v787h37v-787q0 -79 48.5 -124.5t131.5 -45.5q106 0 258 47q69 22 115.5 67t46.5 114v729h37v-971h-37v129q-52 -73 -180 -109q-143 -40 -240 -40t-157 55t-60 149zM360 1337l23 25l221 -207l-20 -22z" />
<glyph unicode="&#xfa;" d="M174 184v787h37v-787q0 -79 48.5 -124.5t131.5 -45.5q106 0 258 47q69 22 115.5 67t46.5 114v729h37v-971h-37v129q-52 -73 -180 -109q-143 -40 -240 -40t-157 55t-60 149zM436 1155l221 207l23 -25l-223 -204z" />
<glyph unicode="&#xfb;" d="M174 184v787h37v-787q0 -79 48.5 -124.5t131.5 -45.5q106 0 258 47q69 22 115.5 67t46.5 114v729h37v-971h-37v129q-52 -73 -180 -109q-143 -40 -240 -40t-157 55t-60 149zM313 1120l205 223l205 -223l-25 -20l-180 196l-180 -196z" />
<glyph unicode="&#xfc;" d="M174 184v787h37v-787q0 -79 48.5 -124.5t131.5 -45.5q106 0 258 47q69 22 115.5 67t46.5 114v729h37v-971h-37v129q-52 -73 -180 -109q-143 -40 -240 -40t-157 55t-60 149zM356 1139v96h43v-96h-43zM643 1139v96h43v-96h-43z" />
<glyph unicode="&#xfd;" horiz-adv-x="878" d="M61 971h39l340 -924l342 924h39l-362 -971l-146 -389h-37l144 391zM385 1155l221 207l23 -25l-223 -204z" />
<glyph unicode="&#xfe;" horiz-adv-x="1021" d="M184 -389v1753h37v-522q51 72 180 108q147 41 240 41q97 0 157 -55.5t60 -149.5v-602q0 -94 -60 -149t-157 -55t-240 40q-128 36 -180 109v-518h-37zM221 242q0 -69 46.5 -114t115.5 -67q152 -47 258 -47q83 0 131.5 45.5t48.5 124.5v602q0 79 -48.5 124.5t-131.5 45.5 q-106 0 -258 -47q-69 -22 -115.5 -66.5t-46.5 -113.5v-487z" />
<glyph unicode="&#xff;" horiz-adv-x="878" d="M61 971h39l340 -924l342 924h39l-362 -971l-146 -389h-37l144 391zM287 1139v96h43v-96h-43zM573 1139v96h43v-96h-43z" />
<glyph unicode="&#x152;" horiz-adv-x="1861" d="M184 227v910q0 95 65.5 161t160.5 66h1296v-35h-688v-590h624v-34h-624v-670h700v-35h-1308q-95 0 -160.5 66t-65.5 161zM221 225q0 -80 55 -135t134 -55h571v1294h-571q-79 0 -134 -55t-55 -135v-914z" />
<glyph unicode="&#x153;" horiz-adv-x="1665" d="M164 227v516q0 96 65 162t160 66h248q69 0 124.5 -37t82.5 -98q25 61 81 98t126 37h235q95 0 160 -66t65 -162v-243h-649v-283q2 -77 56.5 -129.5t132.5 -52.5h235q79 0 134 55t55 135v62h36v-60q0 -95 -65 -161t-160 -66h-235q-70 0 -126 37t-81 98q-27 -61 -82.5 -98 t-124.5 -37h-248q-95 0 -160 66t-65 161zM201 225q0 -80 54.5 -135t133.5 -55h248q79 0 133.5 55t54.5 135v527q-3 78 -56.5 131t-131.5 53h-248q-79 0 -133.5 -55.5t-54.5 -135.5v-520zM862 535h613v210q0 80 -55 135.5t-134 55.5h-235q-78 0 -133 -53t-56 -131v-217z" />
<glyph unicode="&#x178;" horiz-adv-x="1044" d="M49 1364h39l434 -793l434 793h39l-454 -834v-530h-37v530zM358 1518v96h43v-96h-43zM645 1518v96h43v-96h-43z" />
<glyph unicode="&#x2c6;" horiz-adv-x="901" d="M246 1120l205 223l204 -223l-24 -20l-180 196l-181 -196z" />
<glyph unicode="&#x2dc;" horiz-adv-x="948" d="M246 1153l28 86q16 50 68 31l276 -94q16 -5 25 12l29 86l30 -8l-28 -86q-17 -50 -66 -33l-278 94q-17 7 -23 -10l-31 -88z" />
<glyph unicode="&#x2000;" horiz-adv-x="865" />
<glyph unicode="&#x2001;" horiz-adv-x="1731" />
<glyph unicode="&#x2002;" horiz-adv-x="865" />
<glyph unicode="&#x2003;" horiz-adv-x="1731" />
<glyph unicode="&#x2004;" horiz-adv-x="577" />
<glyph unicode="&#x2005;" horiz-adv-x="432" />
<glyph unicode="&#x2006;" horiz-adv-x="288" />
<glyph unicode="&#x2007;" horiz-adv-x="288" />
<glyph unicode="&#x2008;" horiz-adv-x="216" />
<glyph unicode="&#x2009;" horiz-adv-x="346" />
<glyph unicode="&#x200a;" horiz-adv-x="96" />
<glyph unicode="&#x2010;" horiz-adv-x="706" d="M123 588v33h461v-33h-461z" />
<glyph unicode="&#x2011;" horiz-adv-x="706" d="M123 588v33h461v-33h-461z" />
<glyph unicode="&#x2012;" horiz-adv-x="706" d="M123 588v33h461v-33h-461z" />
<glyph unicode="&#x2013;" horiz-adv-x="858" d="M123 588v33h612v-33h-612z" />
<glyph unicode="&#x2014;" horiz-adv-x="1224" d="M123 588v33h979v-33h-979z" />
<glyph unicode="&#x2018;" horiz-adv-x="368" d="M164 1020v160l78 194l34 -14l-71 -180v-160h-41z" />
<glyph unicode="&#x2019;" horiz-adv-x="389" d="M113 1024l71 180v160h41v-160l-78 -194z" />
<glyph unicode="&#x201a;" horiz-adv-x="378" d="M102 -180l72 180v160h41v-160l-78 -195z" />
<glyph unicode="&#x201c;" horiz-adv-x="632" d="M164 1020v160l78 194l34 -14l-71 -180v-160h-41zM428 1020v160l78 194l35 -14l-72 -180v-160h-41z" />
<glyph unicode="&#x201d;" horiz-adv-x="653" d="M113 1024l71 180v160h41v-160l-78 -194zM377 1024l72 180v160h40v-160l-77 -194z" />
<glyph unicode="&#x201e;" horiz-adv-x="643" d="M102 -180l72 180v160h41v-160l-78 -195zM367 -180l71 180v160h41v-160l-78 -195z" />
<glyph unicode="&#x2022;" horiz-adv-x="708" d="M174 670q0 75 52.5 127.5t127.5 52.5t128 -52.5t53 -127.5t-53 -128t-128 -53t-127.5 53t-52.5 128z" />
<glyph unicode="&#x2026;" horiz-adv-x="1228" d="M184 0v160h41v-160h-41zM594 0v160h41v-160h-41zM1004 0v160h40v-160h-40z" />
<glyph unicode="&#x202f;" horiz-adv-x="346" />
<glyph unicode="&#x2039;" horiz-adv-x="638" d="M123 487l319 410l23 -18l-305 -392l305 -391l-23 -18z" />
<glyph unicode="&#x203a;" horiz-adv-x="638" d="M174 96l305 391l-305 392l23 18l319 -410l-319 -409z" />
<glyph unicode="&#x205f;" horiz-adv-x="432" />
<glyph unicode="&#x20ac;" horiz-adv-x="1185" d="M76 524v29h186v270h-186v29h186v285q0 95 65 161t160 66h279q95 0 160 -66t65 -161v-164h-37v166q0 80 -54.5 135t-133.5 55h-279q-79 0 -133.5 -55t-54.5 -135v-287h389v-29h-389v-270h389v-29h-389v-299q0 -80 54.5 -135t133.5 -55h279q79 0 133.5 55t54.5 135v172h37 v-170q0 -95 -65 -161t-160 -66h-279q-95 0 -160 66t-65 161v297h-186z" />
<glyph unicode="&#x2122;" horiz-adv-x="1335" d="M154 1341v23h434v-23h-203v-591h-25v591h-206zM705 750v614h24l205 -430l203 430h24v-614h-24v557l-193 -410h-20l-195 406v-553h-24z" />
<glyph unicode="&#x25fc;" horiz-adv-x="972" d="M0 0v973h973v-973h-973z" />
</font>
</defs>
</svg>
